<?xml version="1.0" encoding="UTF-8" standalone="no"?>
<svg
   width="348"
   height="348"
   viewBox="0 0 348 343"
   fill="none"
   version="1.1"
   id="svg226"
   sodipodi:docname="logo.svg"
   inkscape:version="1.4.2 (ebf0e940d0, 2025-05-08)"
   xml:space="preserve"
   xmlns:inkscape="http://www.inkscape.org/namespaces/inkscape"
   xmlns:sodipodi="http://sodipodi.sourceforge.net/DTD/sodipodi-0.dtd"
   xmlns="http://www.w3.org/2000/svg"
   xmlns:svg="http://www.w3.org/2000/svg"><sodipodi:namedview
     id="namedview228"
     pagecolor="#ffffff"
     bordercolor="#000000"
     borderopacity="0.25"
     inkscape:showpageshadow="2"
     inkscape:pageopacity="0.0"
     inkscape:pagecheckerboard="0"
     inkscape:deskcolor="#d1d1d1"
     showgrid="false"
     inkscape:zoom="2.0046816"
     inkscape:cx="170.35124"
     inkscape:cy="156.13452"
     inkscape:window-width="1920"
     inkscape:window-height="965"
     inkscape:window-x="0"
     inkscape:window-y="0"
     inkscape:window-maximized="1"
     inkscape:current-layer="svg226" /><path
     d="M 282.84032,4.1244755 H 86.840323 c -13.255,0 -24,10.7452005 -24,24.0000005 V 271.12448 c 0,13.255 10.745,24 24,24 H 282.84032 c 13.255,0 24,-10.745 24,-24 V 28.124476 c 0,-13.2548 -10.745,-24.0000005 -24,-24.0000005 z"
     fill="#613583"
     id="path132" /><path
     d="M 283.83798,-0.37669217 H 87.837988 c -13.255,0 -24,10.74520017 -24,24.00000017 V 256.62331 c 0,13.255 10.745,24 24,24 H 283.83798 c 13.255,0 24,-10.745 24,-24 V 23.623308 c 0,-13.2548 -10.745,-24.00000017 -24,-24.00000017 z"
     fill="#813d9c"
     id="path134"
     style="fill:#2f2f2f;fill-opacity:1" /><g
     filter="url(#filter0_d_9_3)"
     id="g138"
     transform="translate(-32.159677,-0.8755245)"
     style="fill:#7800d5;fill-opacity:1"><path
       d="m 308,106 c 0,-49.7056 -40.294,-90 -90,-90 -49.706,0 -90,40.2944 -90,90 0,49.706 40.294,90 90,90 49.706,0 90,-40.294 90,-90 z"
       fill="#c061cb"
       id="path136"
       style="fill:#7800d5;fill-opacity:1" /></g><g
     filter="url(#filter2_d_9_3)"
     id="g148"
     transform="matrix(0.75301869,0,0,0.91306217,47.130955,22.092234)"><path
       d="M 217.035,106.133 318.039,238.49 272.304,263.186 Z"
       fill="#deddda"
       id="path146" /></g><defs
     id="defs224"><linearGradient
       id="linearGradient3107"
       inkscape:swatch="solid"><stop
         style="stop-color:#000000;stop-opacity:1;"
         offset="0"
         id="stop3105" /></linearGradient><filter
       id="filter0_d_9_3"
       x="124"
       y="16"
       width="188"
       height="188"
       filterUnits="userSpaceOnUse"
       color-interpolation-filters="sRGB"><feFlood
         flood-opacity="0"
         result="BackgroundImageFix"
         id="feFlood156" /><feColorMatrix
         in="SourceAlpha"
         type="matrix"
         values="0 0 0 0 0 0 0 0 0 0 0 0 0 0 0 0 0 0 127 0"
         result="hardAlpha"
         id="feColorMatrix158" /><feOffset
         dy="4"
         id="feOffset160" /><feGaussianBlur
         stdDeviation="2"
         id="feGaussianBlur162" /><feComposite
         in2="hardAlpha"
         operator="out"
         id="feComposite164" /><feColorMatrix
         type="matrix"
         values="0 0 0 0 0 0 0 0 0 0 0 0 0 0 0 0 0 0 0.25 0"
         id="feColorMatrix166" /><feBlend
         mode="normal"
         in2="BackgroundImageFix"
         result="effect1_dropShadow_9_3"
         id="feBlend168" /><feBlend
         mode="normal"
         in="SourceGraphic"
         in2="effect1_dropShadow_9_3"
         result="shape"
         id="feBlend170" /></filter><filter
       id="filter1_d_9_3"
       x="187"
       y="202"
       width="59.3543"
       height="78"
       filterUnits="userSpaceOnUse"
       color-interpolation-filters="sRGB"><feFlood
         flood-opacity="0"
         result="BackgroundImageFix"
         id="feFlood173" /><feColorMatrix
         in="SourceAlpha"
         type="matrix"
         values="0 0 0 0 0 0 0 0 0 0 0 0 0 0 0 0 0 0 127 0"
         result="hardAlpha"
         id="feColorMatrix175" /><feOffset
         dy="4"
         id="feOffset177" /><feGaussianBlur
         stdDeviation="3.5"
         id="feGaussianBlur179" /><feComposite
         in2="hardAlpha"
         operator="out"
         id="feComposite181" /><feColorMatrix
         type="matrix"
         values="0 0 0 0 0 0 0 0 0 0 0 0 0 0 0 0 0 0 0.25 0"
         id="feColorMatrix183" /><feBlend
         mode="normal"
         in2="BackgroundImageFix"
         result="effect1_dropShadow_9_3"
         id="feBlend185" /><feBlend
         mode="normal"
         in="SourceGraphic"
         in2="effect1_dropShadow_9_3"
         result="shape"
         id="feBlend187" /></filter><filter
       id="filter2_d_9_3"
       x="212.035"
       y="99.133"
       width="109.004"
       height="165.053"
       filterUnits="userSpaceOnUse"
       color-interpolation-filters="sRGB"><feFlood
         flood-opacity="0"
         result="BackgroundImageFix"
         id="feFlood190" /><feColorMatrix
         in="SourceAlpha"
         type="matrix"
         values="0 0 0 0 0 0 0 0 0 0 0 0 0 0 0 0 0 0 127 0"
         result="hardAlpha"
         id="feColorMatrix192" /><feOffset
         dx="-1"
         dy="-3"
         id="feOffset194" /><feGaussianBlur
         stdDeviation="2"
         id="feGaussianBlur196" /><feComposite
         in2="hardAlpha"
         operator="out"
         id="feComposite198" /><feColorMatrix
         type="matrix"
         values="0 0 0 0 0 0 0 0 0 0 0 0 0 0 0 0 0 0 0.25 0"
         id="feColorMatrix200" /><feBlend
         mode="normal"
         in2="BackgroundImageFix"
         result="effect1_dropShadow_9_3"
         id="feBlend202" /><feBlend
         mode="normal"
         in="SourceGraphic"
         in2="effect1_dropShadow_9_3"
         result="shape"
         id="feBlend204" /></filter><filter
       id="filter3_d_9_3"
       x="14.9661"
       y="34"
       width="139.23"
       height="266.144"
       filterUnits="userSpaceOnUse"
       color-interpolation-filters="sRGB"><feFlood
         flood-opacity="0"
         result="BackgroundImageFix"
         id="feFlood207" /><feColorMatrix
         in="SourceAlpha"
         type="matrix"
         values="0 0 0 0 0 0 0 0 0 0 0 0 0 0 0 0 0 0 127 0"
         result="hardAlpha"
         id="feColorMatrix209" /><feOffset
         id="feOffset211" /><feGaussianBlur
         stdDeviation="2"
         id="feGaussianBlur213" /><feComposite
         in2="hardAlpha"
         operator="out"
         id="feComposite215" /><feColorMatrix
         type="matrix"
         values="0 0 0 0 0 0 0 0 0 0 0 0 0 0 0 0 0 0 0.25 0"
         id="feColorMatrix217" /><feBlend
         mode="normal"
         in2="BackgroundImageFix"
         result="effect1_dropShadow_9_3"
         id="feBlend219" /><feBlend
         mode="normal"
         in="SourceGraphic"
         in2="effect1_dropShadow_9_3"
         result="shape"
         id="feBlend221" /></filter></defs><g
     style="fill:none;stroke:none;stroke-linecap:square;stroke-miterlimit:10"
     id="g1"
     transform="matrix(0.79210464,0,0,0.77841467,67.882844,160.72544)"><g
       clip-path="url(#p.0)"
       id="g24"><path
         fill="#000000"
         fill-opacity="0"
         d="M 0,0 H 150 V 150 H 0 Z"
         fill-rule="evenodd"
         id="path2-5" /><path
         fill="#000000"
         fill-opacity="0"
         d="M 51.77277,38.039745 149.946,137.12635"
         fill-rule="evenodd"
         id="path3" /><path
         stroke="#4a42ff"
         stroke-width="1.59318"
         stroke-linejoin="round"
         stroke-linecap="butt"
         d="M 51.77277,38.039745 149.946,137.12635"
         fill-rule="evenodd"
         id="path4" /><path
         fill="#0080ff"
         d="M 0,12.62205 H 39.283466 V 50.488192 H 0 Z"
         fill-rule="evenodd"
         id="path5" /><path
         fill="#0066cb"
         d="M 39.283466,12.62205 51.90551,3e-6 V 37.866145 L 39.283466,50.488192 Z"
         fill-rule="evenodd"
         id="path6" /><path
         fill="#3399ff"
         d="M 0,12.62205 12.622047,3e-6 H 51.90551 L 39.283466,12.62205 Z"
         fill-rule="evenodd"
         id="path7" /><path
         fill="#000000"
         fill-opacity="0"
         d="M 0,12.62205 12.622047,3e-6 H 51.90551 V 37.866145 L 39.283466,50.488192 H 0 Z m 0,0 H 39.283466 L 51.90551,3e-6 M 39.283466,12.62205 v 37.866142"
         fill-rule="evenodd"
         id="path8" /><path
         stroke="#000000"
         stroke-width="0.582677"
         stroke-linejoin="round"
         stroke-linecap="butt"
         d="M 0,12.62205 12.622047,3e-6 H 51.90551 V 37.866145 L 39.283466,50.488192 H 0 Z m 0,0 H 39.283466 L 51.90551,3e-6 M 39.283466,12.62205 v 37.866142"
         fill-rule="evenodd"
         id="path9" /><path
         fill="#9900ff"
         d="m 97.68032,112.13588 h 39.28345 v 37.86615 H 97.68032 Z"
         fill-rule="evenodd"
         id="path10" /><path
         fill="#7a00cb"
         d="m 136.96378,112.13588 12.62205,-12.622047 v 37.866137 l -12.62205,12.62206 z"
         fill-rule="evenodd"
         id="path11" /><path
         fill="#ad33ff"
         d="m 97.68032,112.13588 12.62205,-12.622047 h 39.28346 l -12.62206,12.622047 z"
         fill-rule="evenodd"
         id="path12" /><path
         fill="#000000"
         fill-opacity="0"
         d="m 97.68032,112.13588 12.62205,-12.622047 h 39.28346 v 37.866137 l -12.62206,12.62206 H 97.68032 Z m 0,0 h 39.28345 l 12.62206,-12.622047 m -12.62206,12.622047 v 37.86615"
         fill-rule="evenodd"
         id="path13" /><path
         stroke="#000000"
         stroke-width="0.582677"
         stroke-linejoin="round"
         stroke-linecap="butt"
         d="m 97.68032,112.13588 12.62205,-12.622047 h 39.28346 v 37.866137 l -12.62206,12.62206 H 97.68032 Z m 0,0 h 39.28345 l 12.62206,-12.622047 m -12.62206,12.622047 v 37.86615"
         fill-rule="evenodd"
         id="path14" /><path
         fill="#000000"
         fill-opacity="0"
         d="m 39.03526,13.266421 98.17322,99.086619"
         fill-rule="evenodd"
         id="path15" /><path
         stroke="#4a42ff"
         stroke-width="1.59318"
         stroke-linejoin="round"
         stroke-linecap="butt"
         d="m 39.03526,13.266421 98.17322,99.086619"
         fill-rule="evenodd"
         id="path16" /><path
         fill="#000000"
         fill-opacity="0"
         d="M 51.822266,0.5668858 149.9955,99.653506"
         fill-rule="evenodd"
         id="path17" /><path
         stroke="#4a42ff"
         stroke-width="1.59318"
         stroke-linejoin="round"
         stroke-linecap="butt"
         d="M 51.822266,0.5668858 149.9955,99.653506"
         fill-rule="evenodd"
         id="path18" /><path
         fill="#000000"
         fill-opacity="0"
         d="M 5.2230974e-4,50.918133 98.173752,150.00474"
         fill-rule="evenodd"
         id="path19" /><path
         stroke="#4a42ff"
         stroke-width="1.59318"
         stroke-linejoin="round"
         stroke-linecap="butt"
         d="M 5.2230974e-4,50.918133 98.173752,150.00474"
         fill-rule="evenodd"
         id="path20" /><path
         fill="#000000"
         fill-opacity="0"
         d="m 38.56778,50.51701 98.17323,99.08661"
         fill-rule="evenodd"
         id="path21" /><path
         stroke="#4a42ff"
         stroke-width="1.59318"
         stroke-linejoin="round"
         stroke-linecap="butt"
         d="m 38.56778,50.51701 98.17323,99.08661"
         fill-rule="evenodd"
         id="path22" /><path
         fill="#000000"
         fill-opacity="0"
         d="M 0.7839197,12.999723 98.957145,112.08633"
         fill-rule="evenodd"
         id="path23" /><path
         stroke="#4a42ff"
         stroke-width="1.59318"
         stroke-linejoin="round"
         stroke-linecap="butt"
         d="M 0.7839197,12.999723 98.957145,112.08633"
         fill-rule="evenodd"
         id="path24" /></g></g><path
     style="fill:#9900ff;fill-opacity:1;stroke-width:0.498832"
     d="m 180.32789,197.21063 c -11.71456,-1.1226 -19.58835,-2.95647 -28.5968,-6.6604 -20.49133,-8.42526 -38.01605,-25.1456 -47.20769,-45.04088 -6.484727,-14.03616 -9.424011,-30.33063 -8.093478,-44.86768 1.126026,-12.302684 3.487623,-20.988308 8.639588,-31.775208 12.46238,-26.093061 36.77715,-44.585109 65.28173,-49.648547 10.88189,-1.933014 26.59886,-1.399011 37.00339,1.257237 32.31772,8.25062 57.48105,33.323457 65.46815,65.232718 2.05568,8.212636 2.51409,12.317293 2.48925,22.28933 -0.0188,7.56085 -0.24452,10.66247 -1.11591,15.33493 -2.24235,12.0238 -7.25788,24.33871 -13.99547,34.36389 -4.01321,5.97145 -11.85371,15.01714 -12.82731,14.79904 -0.36458,-0.0817 -7.86397,-11.59669 -16.6653,-25.58894 -8.80132,-13.99224 -16.67703,-26.28223 -17.50157,-27.31107 -0.9598,-1.19761 -1.9174,-1.87062 -2.66165,-1.87062 -1.85555,0 -2.45915,1.17443 -2.11991,4.1247 0.16503,1.43525 4.42582,16.75143 9.46842,34.03597 l 9.16835,31.42644 -4.03714,1.90326 c -12.4843,5.88556 -30.16535,9.1967 -42.69665,7.99583 z"
     id="path1"
     transform="translate(0,-2.5)" /><path
     style="fill:#0080ff;fill-opacity:1;stroke-width:0.498832"
     d="M 80.602689,296.51487 C 72.474464,294.32044 65.379514,286.75862 63.651859,278.4486 63.258284,276.5555 63.136674,240.52028 63.223426,151.49577 L 63.344562,27.186362 63.59755,145.65904 c 0.283447,132.73598 -0.10057,120.35073 3.921978,126.49095 2.384666,3.64007 4.445923,5.6156 8.224822,7.88274 5.863884,3.51802 -1.258799,3.30404 109.97637,3.30404 66.08488,0 101.13796,-0.17344 102.90825,-0.50917 6.43615,-1.22059 13.49582,-6.41713 16.60453,-12.22241 l 1.32954,-2.48281 -0.19689,5.48715 c -0.14706,4.09849 -0.47528,6.21218 -1.29691,8.35196 -2.30449,6.00168 -7.75135,11.45567 -13.94111,13.95936 l -2.80304,1.1338 -102.51005,0.0949 c -88.596639,0.082 -102.876817,-0.004 -105.212351,-0.63467 z"
     id="path2"
     transform="translate(0,-2.5)" /></svg>
